<?xml version="1.0" standalone="no"?>
<!DOCTYPE svg PUBLIC "-//W3C//DTD SVG 20010904//EN"
 "http://www.w3.org/TR/2001/REC-SVG-20010904/DTD/svg10.dtd">
<svg version="1.0" xmlns="http://www.w3.org/2000/svg"
 width="530.000000pt" height="472.000000pt" viewBox="0 0 530.000000 472.000000"
 preserveAspectRatio="xMidYMid meet">

<g transform="translate(0.000000,472.000000) scale(0.100000,-0.100000)"
fill="#000000" stroke="none">
<path d="M1270 4714 c-264 -48 -398 -100 -585 -228 -100 -68 -256 -217 -331
-316 -121 -160 -233 -383 -288 -573 -233 -806 178 -1682 1229 -2618 380 -338
813 -663 1220 -914 75 -46 114 -65 139 -65 25 0 72 24 187 96 701 438 1421
1057 1846 1586 110 137 279 395 355 543 181 353 251 612 252 930 1 244 -32
417 -118 616 -137 319 -334 567 -584 733 -237 158 -472 224 -766 213 -220 -7
-382 -49 -581 -148 -189 -94 -407 -274 -530 -439 -26 -36 -51 -69 -55 -73 -4
-5 -37 29 -72 75 -223 285 -542 489 -878 563 -73 16 -383 29 -440 19z m756
-944 c153 -39 300 -125 417 -243 l67 -68 0 -114 c0 -63 -2 -115 -4 -115 -1 0
-45 20 -97 44 -227 105 -432 140 -597 101 -84 -20 -135 -48 -198 -107 -69 -65
-107 -126 -145 -228 -40 -111 -51 -206 -38 -331 24 -241 140 -497 339 -751
140 -178 424 -439 662 -608 l78 -55 0 -128 c0 -100 -3 -127 -12 -121 -50 29
-212 142 -308 213 -553 412 -967 902 -1099 1299 -58 173 -72 375 -37 527 78
341 316 608 608 685 102 26 259 26 364 0z m1608 0 c164 -42 319 -149 430 -296
341 -455 253 -984 -263 -1584 -216 -251 -551 -544 -871 -763 l-85 -58 -3 1218
-2 1217 47 49 c93 95 242 180 383 216 103 27 261 28 364 1z"/>
<path d="M3335 3371 c-76 -20 -167 -54 -202 -77 l-23 -14 0 -831 0 -831 38 27
c426 317 710 669 793 985 32 120 32 269 1 364 -53 157 -141 284 -236 340 -96
56 -239 70 -371 37z"/>
</g>
</svg>
